<?xml version="1.0" encoding="UTF-8" standalone="no"?>
<!-- Created with Inkscape (http://www.inkscape.org/) -->

<svg
   width="115.39599mm"
   height="115.396mm"
   viewBox="0 0 115.39599 115.396"
   version="1.1"
   id="svg1"
   inkscape:version="1.3.2 (091e20e, 2023-11-25, custom)"
   sodipodi:docname="aqua_sentinel_logo.svg"
   xml:space="preserve"
   xmlns:inkscape="http://www.inkscape.org/namespaces/inkscape"
   xmlns:sodipodi="http://sodipodi.sourceforge.net/DTD/sodipodi-0.dtd"
   xmlns="http://www.w3.org/2000/svg"
   xmlns:svg="http://www.w3.org/2000/svg"><sodipodi:namedview
     id="namedview1"
     pagecolor="#ffffff"
     bordercolor="#000000"
     borderopacity="0.25"
     inkscape:showpageshadow="2"
     inkscape:pageopacity="0.0"
     inkscape:pagecheckerboard="0"
     inkscape:deskcolor="#d1d1d1"
     inkscape:document-units="mm"
     showguides="true"
     inkscape:zoom="0.36124088"
     inkscape:cx="-477.52071"
     inkscape:cy="1872.7117"
     inkscape:window-width="1920"
     inkscape:window-height="1046"
     inkscape:window-x="-11"
     inkscape:window-y="-11"
     inkscape:window-maximized="1"
     inkscape:current-layer="layer2"><sodipodi:guide
       position="1027.7755,987.49112"
       orientation="0,-1"
       id="guide7"
       inkscape:locked="false" /></sodipodi:namedview><defs
     id="defs1" /><g
     inkscape:groupmode="layer"
     id="layer2"
     inkscape:label="Layer 2"
     transform="translate(783.18105,-827.32297)"><g
       id="g7"
       transform="translate(64.220293,-0.08285476)"><path
         id="path1-9-4-2"
         style="color:#000000;fill:#ffffff;fill-opacity:1;stroke-width:1.10413;-inkscape-stroke:none"
         d="m -861.86494,694.37808 c 2.06055,-3.12386 3.85222,-3.7451 5.00756,-3.70963 -2.2e-4,0.35509 -0.009,1.76376 -0.009,1.99908 l -0.0114,0.002 0.002,2.22174 0.0227,30.97363 -0.003,1.1819 c -1.80215,8.31541 -11.91629,9.76701 -17.00205,4.98136 -6.71867,-6.3222 -0.42785,-16.22295 0.82702,-19.65972 1.56868,-4.29624 3.60834,-9.86448 1.00403,-19.91395 -2.4348,7.27463 -6.1255,11.8117 -10.33925,16.20706 4.12906,-2.19947 5.3758,-0.85268 6.55158,-0.71319 -2.35806,7.73446 -8.94744,15.84025 -7.94728,20.26239 1.1497,5.08346 5.46107,9.26744 9.64137,11.45384 4.18031,2.18637 8.93879,2.88623 12.60923,3.89905 1.96543,0.54235 4.09838,1.6419 4.67451,4.01828 l 0.005,4.68849 c -2.28882,0.13418 -1.92434,1.00608 -1.92434,2.54462 0,1.08607 -0.13659,2.15805 1.92972,2.34235 l 0.0149,21.3504 2.89307,-4e-5 2.89307,-4e-5 v 0 l 0.0149,-21.37277 c 2.04702,-0.19693 1.9291,-1.23993 1.9291,-2.32275 0,-1.53839 0.36441,-2.41066 -1.92373,-2.54518 l 0.005,-4.69009 c 0.57677,-2.37513 2.70897,-3.47446 4.67389,-4.01666 3.67044,-1.01282 8.42892,-1.71267 12.60922,-3.89906 4.18031,-2.1864 8.49168,-6.36982 9.64139,-11.45329 1.00016,-4.42213 -5.58923,-12.52849 -7.94728,-20.26293 1.17578,-0.13951 2.42251,-1.48627 6.55157,0.71318 -4.21376,-4.39534 -7.90444,-8.93244 -10.33924,-16.20705 -2.60431,10.04947 -0.56465,15.6177 1.00403,19.91394 1.25485,3.4368 7.54567,13.33752 0.82701,19.65972 -5.08578,4.78567 -15.19989,3.33404 -17.00204,-4.98136 l -0.003,-1.01422 0.0227,-31.13259 0.002,-2.22175 -0.0124,-0.002 c -1.7e-4,-0.23636 -0.009,-1.65063 -0.009,-2.00779 1.15535,-0.0353 2.94702,0.5863 5.00756,3.71015 -0.19358,-6.50705 -3.21224,-13.92653 -7.94429,-18.72914 -4.40271,4.74491 -8.07404,12.38228 -7.94851,18.73296 z"
         sodipodi:nodetypes="cccccccsscccsssccsccccccsccssscccsscccccccccc"
         inkscape:label="trident"
         inkscape:export-filename="aqua_sentinel_logo_white.svg"
         inkscape:export-xdpi="96"
         inkscape:export-ydpi="96" /><circle
         style="fill:none;stroke:#ffffff;stroke-width:5.13875;stroke-dasharray:none;stroke-opacity:1"
         id="path4-6-3-6"
         cx="-853.91876"
         cy="723.45508"
         r="55.12862" /><path
         id="path4-6-7-6-7"
         style="fill:none;stroke:#ffffff;stroke-width:4.5;stroke-dasharray:none;stroke-opacity:1"
         d="m -894.90135,744.82521 c -3.33929,-6.39085 -5.22754,-13.65993 -5.22754,-21.37004 0,-21.20227 14.27916,-39.06945 33.74546,-44.50952 m 25.52921,0.17203 c 19.15909,5.63643 33.14564,23.3536 33.14564,44.33749 0,7.37305 -1.72676,14.34279 -4.79794,20.52687"
         sodipodi:nodetypes="csccsc" /><path
         style="fill:none;fill-opacity:1;stroke:#ffffff;stroke-width:4.5;stroke-dasharray:none;stroke-opacity:1"
         d="m -898.77285,755.47089 c 23.211,-15.35083 28.86048,11.08937 44.8546,11.20568 5.92061,0.043 10.58871,-3.64908 15.34317,-7.50115 8.08939,-6.55404 16.42878,-13.5711 31.61269,-3.4416"
         id="path3-0-1-0"
         sodipodi:nodetypes="cssc" /><path
         id="path1-9-4-2-0"
         style="color:#000000;fill:#000000;fill-opacity:1;stroke-width:1.10413;-inkscape-stroke:none"
         d="m -797.64956,856.02683 c 2.06055,-3.12386 3.85222,-3.7451 5.00756,-3.70963 -2.2e-4,0.35509 -0.009,1.76376 -0.009,1.99908 l -0.0114,0.002 0.002,2.22174 0.0227,30.97363 -0.003,1.1819 c -1.80215,8.31541 -11.91629,9.76701 -17.00206,4.98136 -6.7187,-6.3222 -0.4278,-16.22295 0.827,-19.65972 1.56871,-4.29624 3.60837,-9.86448 1.0041,-19.91395 -2.4348,7.27463 -6.1255,11.8117 -10.3393,16.20706 4.1291,-2.19947 5.3758,-0.85268 6.5516,-0.71319 -2.3581,7.73446 -8.9475,15.84025 -7.9473,20.26239 1.1497,5.08346 5.4611,9.26744 9.6414,11.45384 4.18029,2.18637 8.93877,2.88623 12.60921,3.89905 1.96543,0.54235 4.09838,1.6419 4.67451,4.01828 l 0.005,4.68849 c -2.28882,0.13418 -1.92434,1.00608 -1.92434,2.54462 0,1.08607 -0.13659,2.15805 1.92972,2.34235 l 0.0149,21.3504 2.89307,-4e-5 2.89307,-4e-5 v 0 l 0.0149,-21.37277 c 2.04702,-0.19693 1.9291,-1.23993 1.9291,-2.32275 0,-1.53839 0.36441,-2.41066 -1.92373,-2.54518 l 0.005,-4.69009 c 0.57677,-2.37513 2.70897,-3.47446 4.67389,-4.01666 3.67044,-1.01282 8.42892,-1.71267 12.60922,-3.89906 4.18031,-2.1864 8.49168,-6.36982 9.64139,-11.45329 1.00016,-4.42213 -5.58923,-12.52849 -7.94728,-20.26293 1.17578,-0.13951 2.42251,-1.48627 6.55157,0.71318 -4.21376,-4.39534 -7.90444,-8.93244 -10.33924,-16.20705 -2.60431,10.04947 -0.56465,15.6177 1.00403,19.91394 1.25485,3.4368 7.54567,13.33752 0.82701,19.65972 -5.08578,4.78567 -15.19989,3.33404 -17.00204,-4.98136 l -0.003,-1.01422 0.0227,-31.13259 0.002,-2.22175 -0.0124,-0.002 c -1.7e-4,-0.23636 -0.009,-1.65063 -0.009,-2.00779 1.15535,-0.0353 2.94702,0.5863 5.00756,3.71015 -0.19358,-6.50705 -3.21224,-13.92653 -7.94429,-18.72914 -4.40271,4.74491 -8.07404,12.38228 -7.94851,18.73296 z"
         sodipodi:nodetypes="cccccccsscccsssccsccccccsccssscccsscccccccccc"
         inkscape:label="trident"
         inkscape:export-filename="aqua_sentinel_logo_white.svg"
         inkscape:export-xdpi="96"
         inkscape:export-ydpi="96" /><circle
         style="fill:none;stroke:#000000;stroke-width:5.13875;stroke-dasharray:none;stroke-opacity:1"
         id="path4-6-3-6-5"
         cx="-789.70337"
         cy="885.10382"
         r="55.12862" /><path
         id="path4-6-7-6-7-5"
         style="fill:none;stroke:#000000;stroke-width:4.5;stroke-dasharray:none;stroke-opacity:1"
         d="m -830.68596,906.47396 c -3.3393,-6.39085 -5.2276,-13.65993 -5.2276,-21.37004 0,-21.20227 14.2792,-39.06945 33.74551,-44.50952 m 25.52921,0.17203 c 19.15909,5.63643 33.14564,23.3536 33.14564,44.33749 0,7.37305 -1.72676,14.34279 -4.79794,20.52687"
         sodipodi:nodetypes="csccsc" /><path
         style="fill:none;fill-opacity:1;stroke:#000000;stroke-width:4.5;stroke-dasharray:none;stroke-opacity:1"
         d="m -834.55746,917.11964 c 23.211,-15.35083 28.86047,11.08937 44.85459,11.20568 5.92061,0.043 10.58871,-3.64908 15.34317,-7.50115 8.08939,-6.55404 16.42878,-13.5711 31.61269,-3.4416"
         id="path3-0-1-0-6"
         sodipodi:nodetypes="cssc" /></g></g></svg>
